<svg xmlns="http://www.w3.org/2000/svg" version="1.1" xmlns:xlink="http://www.w3.org/1999/xlink" xmlns:svgjs="http://svgjs.dev/svgjs" width="1440" height="250" preserveAspectRatio="none" viewBox="0 0 1440 250"><g mask="url(&quot;#SvgjsMask5245&quot;)" fill="none"><path d="M38 250L288 0L468 0L218 250z" fill="url(&quot;#SvgjsLinearGradient5246&quot;)"></path><path d="M240.60000000000002 250L490.6 0L717.1 0L467.1 250z" fill="url(&quot;#SvgjsLinearGradient5246&quot;)"></path><path d="M489.20000000000005 250L739.2 0L781.2 0L531.2 250z" fill="url(&quot;#SvgjsLinearGradient5246&quot;)"></path><path d="M758.8000000000001 250L1008.8000000000001 0L1361.3000000000002 0L1111.3000000000002 250z" fill="url(&quot;#SvgjsLinearGradient5246&quot;)"></path><path d="M1421 250L1171 0L931 0L1181 250z" fill="url(&quot;#SvgjsLinearGradient5247&quot;)"></path><path d="M1164.4 250L914.4000000000001 0L800.4000000000001 0L1050.4 250z" fill="url(&quot;#SvgjsLinearGradient5247&quot;)"></path><path d="M940.8 250L690.8 0L435.79999999999995 0L685.8 250z" fill="url(&quot;#SvgjsLinearGradient5247&quot;)"></path><path d="M700.1999999999999 250L450.19999999999993 0L262.69999999999993 0L512.6999999999999 250z" fill="url(&quot;#SvgjsLinearGradient5247&quot;)"></path><path d="M1295.046706503469 250L1440 105.04670650346904L1440 250z" fill="url(&quot;#SvgjsLinearGradient5246&quot;)"></path><path d="M0 250L144.95329349653096 250L 0 105.04670650346904z" fill="url(&quot;#SvgjsLinearGradient5247&quot;)"></path></g><defs><mask id="SvgjsMask5245"><rect width="1440" height="250" fill="#ffffff"></rect></mask><linearGradient x1="0%" y1="100%" x2="100%" y2="0%" id="SvgjsLinearGradient5246"><stop stop-color="rgba(15, 70, 185, 0.2)" offset="0"></stop><stop stop-opacity="0" stop-color="rgba(15, 70, 185, 0.2)" offset="0.66"></stop></linearGradient><linearGradient x1="100%" y1="100%" x2="0%" y2="0%" id="SvgjsLinearGradient5247"><stop stop-color="rgba(15, 70, 185, 0.2)" offset="0"></stop><stop stop-opacity="0" stop-color="rgba(15, 70, 185, 0.2)" offset="0.66"></stop></linearGradient></defs></svg>